HIERARCHY
ROOT Hips
{
	OFFSET 0.000000 0.000000 0.000000
	CHANNELS 6 Xposition Yposition Zposition Zrotation Yrotation Xrotation 
	JOINT LHipJoint
	{
		OFFSET 0.000000 0.000000 0.000000
		CHANNELS 3 Zrotation Yrotation Xrotation
		JOINT LeftUpLeg
		{
			OFFSET 1.363060 -1.794630 0.839290
			CHANNELS 3 Zrotation Yrotation Xrotation
			JOINT LeftLeg
			{
				OFFSET 2.448110 -6.726130 0.000000
				CHANNELS 3 Zrotation Yrotation Xrotation
				JOINT LeftFoot
				{
					OFFSET 2.562200 -7.039590 0.000000
					CHANNELS 3 Zrotation Yrotation Xrotation
					JOINT LeftToeBase
					{
						OFFSET 0.157640 -0.433110 2.322550
						CHANNELS 3 Zrotation Yrotation Xrotation
						End Site
						{
							OFFSET 0.000000 0.000000 0.000000
						}
					}
				}
			}
		}
	}
	JOINT RHipJoint
	{
		OFFSET 0.000000 0.000000 0.000000
		CHANNELS 3 Zrotation Yrotation Xrotation
		JOINT RightUpLeg
		{
			OFFSET -1.305520 -1.794630 0.839290
			CHANNELS 3 Zrotation Yrotation Xrotation
			JOINT RightLeg
			{
				OFFSET -2.542530 -6.985550 0.000000
				CHANNELS 3 Zrotation Yrotation Xrotation
				JOINT RightFoot
				{
					OFFSET -2.568260 -7.056230 0.000000
					CHANNELS 3 Zrotation Yrotation Xrotation
					JOINT RightToeBase
					{
						OFFSET -0.164730 -0.452590 2.363150
						CHANNELS 3 Zrotation Yrotation Xrotation
						End Site
						{
							OFFSET 0.000000 0.000000 0.000000
						}
					}
				}
			}
		}
	}
	JOINT LowerBack
	{
		OFFSET 0.000000 0.000000 0.000000
		CHANNELS 3 Zrotation Yrotation Xrotation
		JOINT Spine
		{
			OFFSET 0.028270 2.035590 -0.193380
			CHANNELS 3 Zrotation Yrotation Xrotation
			JOINT Spine1
			{
				OFFSET 0.056720 2.048850 -0.042750
				CHANNELS 3 Zrotation Yrotation Xrotation
				JOINT Neck
				{
					OFFSET 0.000000 0.000000 0.000000
					CHANNELS 3 Zrotation Yrotation Xrotation
					JOINT Neck1
					{
						OFFSET -0.054170 1.746240 0.172020
						CHANNELS 3 Zrotation Yrotation Xrotation
						JOINT Head
						{
							OFFSET 0.104070 1.761360 -0.123970
							CHANNELS 3 Zrotation Yrotation Xrotation
							End Site
							{
								OFFSET 0.000000 0.000000 0.000000
							}
						}
					}
				}
				JOINT LeftShoulder
				{
					OFFSET 0.000000 0.000000 0.000000
					CHANNELS 3 Zrotation Yrotation Xrotation
					JOINT LeftArm
					{
						OFFSET 3.362410 1.200890 -0.311210
						CHANNELS 3 Zrotation Yrotation Xrotation
						JOINT LeftForeArm
						{
							OFFSET 4.983000 -0.000000 -0.000000
							CHANNELS 3 Zrotation Yrotation Xrotation
							JOINT LeftHand
							{
								OFFSET 3.483560 -0.000000 -0.000000
								CHANNELS 3 Zrotation Yrotation Xrotation
								JOINT LeftFingerBase
								{
									OFFSET 0.000000 0.000000 0.000000
									CHANNELS 3 Zrotation Yrotation Xrotation
									JOINT LeftHandIndex1
									{
										OFFSET 0.715260 -0.000000 -0.000000
										CHANNELS 3 Zrotation Yrotation Xrotation
										End Site
										{
											OFFSET 0.000000 0.000000 0.000000
										}
									}
								}
								JOINT LThumb
								{
									OFFSET 0.000000 0.000000 0.000000
									CHANNELS 3 Zrotation Yrotation Xrotation
									End Site
									{
										OFFSET 0.000000 0.000000 0.000000
									}
								}
							}
						}
					}
				}
				JOINT RightShoulder
				{
					OFFSET 0.000000 0.000000 0.000000
					CHANNELS 3 Zrotation Yrotation Xrotation
					JOINT RightArm
					{
						OFFSET -3.136600 1.374050 -0.404650
						CHANNELS 3 Zrotation Yrotation Xrotation
						JOINT RightForeArm
						{
							OFFSET -5.241900 -0.000000 -0.000000
							CHANNELS 3 Zrotation Yrotation Xrotation
							JOINT RightHand
							{
								OFFSET -3.444170 -0.000000 -0.000000
								CHANNELS 3 Zrotation Yrotation Xrotation
								JOINT RightFingerBase
								{
									OFFSET 0.000000 0.000000 0.000000
									CHANNELS 3 Zrotation Yrotation Xrotation
									JOINT RightHandIndex1
									{
										OFFSET -0.622530 -0.000000 -0.000000
										CHANNELS 3 Zrotation Yrotation Xrotation
										End Site
										{
											OFFSET 0.000000 0.000000 0.000000
										}
									}
								}
								JOINT RThumb
								{
									OFFSET 0.000000 0.000000 0.000000
									CHANNELS 3 Zrotation Yrotation Xrotation
									End Site
									{
										OFFSET 0.000000 0.000000 0.000000
									}
								}
							}
						}
					}
				}
			}
		}
	}
}
MOTION
Frames: 6
Frame Time: 0.016667
0.252979 16.927054 0.252979 1.174756 -10.308302 7.065917 -23.058307 2.273681 19.785002 27.555090 -26.951188 -32.096750 57.273108 -49.957232 -24.205535 -44.023827 -35.305993 55.788152 0.000000 0.000000 0.000000 14.067836 -13.224207 1.472241 1.950998 23.902659 -22.245348 23.147218 27.992214 -47.766526 13.655820 -63.158451 38.122986 0.000000 0.000000 0.000000 10.623881 7.018280 -12.746532 -11.485391 6.362219 42.094687 -2.219852 2.503668 -24.533265 5.230233 0.550456 -9.576444 2.656564 0.612933 -5.726271 0.000000 0.000000 0.000000 -6.563818 13.890558 10.124738 -67.118684 -1.598515 15.094224 7.483547 -86.380446 1.126280 -9.429200 6.723349 0.563346 -9.476271 6.679641 -0.000000 0.000000 0.000000 0.000000 0.000000 0.000000 0.000000 -1.021986 -17.331648 5.859107 65.321838 2.971459 18.946698 21.329502 67.854947 1.027856 0.748948 19.417482 0.508160 0.753705 19.433928 0.000000 0.000000 0.000000 0.000000 0.000000 0.000000 0.000000 
0.299004 16.983857 0.449213 1.305651 -10.764547 6.115875 -24.166977 3.210288 21.361051 28.873620 -26.732705 -32.559355 56.913098 -50.319929 -23.633278 -43.805545 -35.984449 54.769081 0.000000 0.000000 0.000000 12.061927 -15.690969 1.848389 5.268107 25.151999 -22.043261 24.122024 28.234250 -43.883631 13.491690 -59.790454 39.690577 0.000000 0.000000 0.000000 13.765667 8.598254 -15.050455 -15.993622 8.512085 48.248731 4.014336 2.181378 -26.124055 5.203641 -0.639019 -13.437357 -1.391970 -0.146380 -0.679756 0.000000 0.000000 0.000000 -4.713719 14.063910 5.925284 -71.479760 -12.149696 -4.140747 -151.906950 -81.423897 173.415592 17.159136 -10.358261 -3.800472 18.898139 -9.346237 -0.000000 0.000000 0.000000 0.000000 0.000000 0.000000 0.000000 3.116662 -14.747683 6.600233 57.300655 0.482089 21.051795 5.041820 82.674998 -0.007214 -0.995699 -26.854959 -0.001924 -0.991754 -26.855077 0.000000 0.000000 0.000000 0.000000 0.000000 0.000000 0.000000 
0.347117 17.042478 0.645011 0.848826 -10.669038 4.741806 -24.616880 5.312985 22.596921 29.555626 -26.603589 -32.876470 55.870539 -49.348172 -24.421096 -48.169749 -33.263084 58.631370 0.000000 0.000000 0.000000 8.340316 -21.088695 2.578892 13.817858 27.588419 -21.738346 25.596621 27.369204 -34.901618 8.747297 -49.255797 43.485416 0.000000 0.000000 0.000000 17.293968 9.299858 -16.943035 -19.393785 10.020227 51.937457 10.695346 2.707912 -22.802265 4.865814 -2.746423 -16.553619 -6.742139 -0.770640 0.724148 0.000000 0.000000 0.000000 2.842279 16.218056 -7.340447 -68.916300 -29.913911 -10.713111 10.591405 -67.041539 -57.544563 33.514706 49.584144 -5.345937 -3.967213 2.973986 0.000000 0.000000 0.000000 0.000000 0.000000 0.000000 0.000000 3.106017 -8.454595 8.652261 53.784884 -1.823382 15.009134 -9.188417 85.820639 -0.623596 8.650439 -41.738103 -0.603366 10.161026 -41.431499 0.000000 0.000000 0.000000 0.000000 0.000000 0.000000 0.000000 
0.011606 16.825498 0.450132 -0.851845 -11.314617 6.446639 -12.398876 5.740484 14.539023 15.718695 -32.960501 -26.297451 57.655981 -50.586989 -24.856715 -47.754498 -36.817474 55.527518 0.000000 0.000000 0.000000 7.436772 -22.627303 -3.957714 28.504472 27.037855 -15.860148 23.217283 23.538026 -25.417100 21.362549 -49.422890 32.034566 0.000000 0.000000 0.000000 3.130188 1.299478 -3.058305 -6.856483 1.142788 29.963840 11.564969 4.115801 -30.531877 7.615462 -5.067238 -10.228159 -11.992637 -1.140530 7.335770 0.000000 0.000000 0.000000 2.120269 15.499216 -37.913494 -59.611985 -20.375903 -29.258735 -21.496180 -32.530978 -47.903484 87.315500 64.282523 12.897660 101.362609 -66.498622 180.000000 0.000000 0.000000 0.000000 0.000000 0.000000 0.000000 2.630963 0.590847 18.939432 51.858629 -7.180861 16.380437 -11.265032 84.963604 -0.169846 12.049449 -42.196006 -0.498380 13.924454 -41.635764 0.000000 0.000000 0.000000 0.000000 0.000000 0.000000 0.000000 
-0.053262 16.802091 0.524186 -0.340908 -14.784097 5.829131 -8.981628 7.915329 13.060840 9.638815 -34.282748 -23.242131 57.679641 -50.606432 -23.993525 -47.758370 -37.448623 54.690654 0.000000 0.000000 0.000000 3.885721 -29.676003 -8.015116 45.947833 25.096727 -8.335443 19.826769 19.141363 -9.979269 28.195690 -37.784390 27.814898 0.000000 0.000000 0.000000 2.526007 -0.027082 2.316827 -11.214050 -1.535340 16.028585 14.036212 1.003837 -25.884194 14.394827 -5.829263 -2.937367 -20.254968 -1.182612 6.143074 0.000000 0.000000 0.000000 -6.454558 3.445449 -53.892624 -33.765581 -23.694961 -51.119071 18.422612 -21.205554 -50.071569 129.644113 -11.904253 57.860496 -36.913737 -51.932793 -0.000000 0.000000 0.000000 0.000000 0.000000 0.000000 0.000000 7.650372 11.418435 25.029557 53.113658 -9.510279 12.601959 -12.678518 83.024833 -0.590303 14.664248 -41.394661 -0.832856 17.000735 -40.556109 0.000000 0.000000 0.000000 0.000000 0.000000 0.000000 0.000000 
-0.112258 16.781645 0.600272 0.958033 -19.749314 4.035819 -6.564374 11.105602 12.940902 4.202282 -35.085488 -20.453708 57.448999 -51.120182 -22.463996 -45.203218 -39.514830 51.444224 0.000000 0.000000 0.000000 8.188973 -37.236936 -13.932321 63.113986 23.487288 -2.041272 1.914933 17.649176 16.412973 39.572875 -17.207460 18.419271 0.000000 0.000000 0.000000 -5.196355 -2.228734 9.851308 -7.470262 -4.513807 0.182772 28.947335 4.951496 -33.281435 9.132481 -6.284682 16.579039 -29.080470 -0.354054 13.244765 0.000000 0.000000 0.000000 14.413477 -12.123715 -102.216382 -2.855546 32.739996 -150.570806 5.079206 -6.440347 -179.102581 -111.773784 74.617571 43.764408 -6.532995 -23.992940 0.000000 0.000000 0.000000 0.000000 0.000000 0.000000 0.000000 7.450998 21.689898 41.014617 50.260159 -20.995251 13.247580 -15.159983 82.869597 -0.277447 17.459250 -39.702252 -0.652469 19.648118 -38.714632 -0.000000 0.000000 0.000000 0.000000 0.000000 0.000000 0.000000 
